HIERARCHY
ROOT Hips
{
	OFFSET 0.00000 0.00000 0.00000
	CHANNELS 6 Xposition Yposition Zposition Zrotation Yrotation Xrotation 
	JOINT LHipJoint
	{
		OFFSET 0 0 0
		CHANNELS 3 Zrotation Yrotation Xrotation
		JOINT LeftHip
		{
			OFFSET 1.64577 -1.42384 0.94276
			CHANNELS 3 Zrotation Yrotation Xrotation
			JOINT LeftKnee
			{
				OFFSET 2.11538 -5.81197 0.00000
				CHANNELS 3 Zrotation Yrotation Xrotation
				JOINT LeftAnkle
				{
					OFFSET 2.36541 -6.49893 0.00000
					CHANNELS 3 Zrotation Yrotation Xrotation
					JOINT LeftToe
					{
						OFFSET 0.17759 -0.48793 1.73865
						CHANNELS 3 Zrotation Yrotation Xrotation
						End Site
						{
							OFFSET 0.00000 -0.00000 0.91205
						}
					}
				}
			}
		}
	}
	JOINT RHipJoint
	{
		OFFSET 0 0 0
		CHANNELS 3 Zrotation Yrotation Xrotation
		JOINT RightHip
		{
			OFFSET -1.43750 -1.42384 0.94276
			CHANNELS 3 Zrotation Yrotation Xrotation
			JOINT RightKnee
			{
				OFFSET -2.10480 -5.78291 0.00000
				CHANNELS 3 Zrotation Yrotation Xrotation
				JOINT RightAnkle
				{
					OFFSET -2.34880 -6.45329 0.00000
					CHANNELS 3 Zrotation Yrotation Xrotation
					JOINT RightToe
					{
						OFFSET -0.22842 -0.62757 1.80469
						CHANNELS 3 Zrotation Yrotation Xrotation
						End Site
						{
							OFFSET -0.00000 -0.00000 0.95886
						}
					}
				}
			}
		}
	}
	JOINT lowerback
	{
		OFFSET 0 0 0
		CHANNELS 3 Zrotation Yrotation Xrotation
		JOINT Chest
		{
			OFFSET 0.06217 1.93758 -0.49272
			CHANNELS 3 Zrotation Yrotation Xrotation
			JOINT Chest2
			{
				OFFSET -0.03114 2.03621 -0.05830
				CHANNELS 3 Zrotation Yrotation Xrotation
				JOINT lowerneck
				{
					OFFSET 0 0 0
					CHANNELS 3 Zrotation Yrotation Xrotation
					JOINT Neck
					{
						OFFSET 0.04421 1.41010 0.26562
						CHANNELS 3 Zrotation Yrotation Xrotation
						JOINT Head
						{
							OFFSET -0.13407 1.43847 0.06181
							CHANNELS 3 Zrotation Yrotation Xrotation
							End Site
							{
								OFFSET -0.04980 1.45844 -0.00689
							}
						}
					}
				}
				JOINT LeftCollar
				{
					OFFSET 0 0 0
					CHANNELS 3 Zrotation Yrotation Xrotation
					JOINT LeftShoulder
					{
						OFFSET 2.18382 1.47753 -0.35694
CHANNELS 3 Zrotation Xrotation Yrotation
						JOINT LeftElbow
						{
OFFSET 0 -5.054600 0.000000
CHANNELS 3 Zrotation Xrotation Yrotation
							JOINT LeftWrist
							{
OFFSET 0 -3.390130 0.000000
CHANNELS 3 Zrotation Xrotation Yrotation
								JOINT lhand
								{
									OFFSET 0 0 0
CHANNELS 3 Zrotation Xrotation Yrotation
									JOINT LFingers
									{
OFFSET 0 -0.572420 -0.000000
CHANNELS 3 Zrotation Xrotation Yrotation
										End Site
										{
OFFSET 0 -0.461500 -0.000000
										}
									}
								}
								JOINT LThumb
								{
OFFSET 0 0.000000 0.000000
CHANNELS 3 Zrotation Xrotation Yrotation
									End Site
									{
OFFSET 0 -0.468550 0.468550
									}
								}
							}
						}
					}
				}
				JOINT RightCollar
				{
					OFFSET 0 0 0
					CHANNELS 3 Zrotation Yrotation Xrotation
					JOINT RightShoulder
					{
						OFFSET -2.06033 1.72839 -0.47437
CHANNELS 3 Zrotation Xrotation Yrotation
						JOINT RightElbow
						{
OFFSET 0 -5.070100 0.000000
CHANNELS 3 Zrotation Xrotation Yrotation
							JOINT RightWrist
							{
OFFSET 0 -3.149570 -0.000000
CHANNELS 3 Zrotation Xrotation Yrotation
								JOINT rhand
								{
									OFFSET 0 0 0
CHANNELS 3 Zrotation Xrotation Yrotation
									JOINT RFingers
									{
OFFSET 0 -0.718190 -0.000000
CHANNELS 3 Zrotation Xrotation Yrotation
										End Site
										{
OFFSET 0 -0.579020 -0.000000
										}
									}
								}
								JOINT RThumb
								{
OFFSET 0 0.000000 0.000000
CHANNELS 3 Zrotation Xrotation Yrotation
									End Site
									{
OFFSET 0 -0.587860 0.587860
									}
								}
							}
						}
					}
				}
			}
		}
	}
}
MOTION
Frames: 6
Frame Time: 0.008333333333333333
16.614205 18.324451 0.714716 -25.548656 -86.614632 23.666147 0.000000 0.000000 0.000000 -24.594496 -18.844329 -5.005895 3.286230 11.144581 32.769156 2.191680 2.045275 -28.779563 0.012064 0.708470 1.946943 0.000000 0.000000 0.000000 24.445945 7.160920 -22.639873 -8.295205 -16.331597 53.618151 -1.828570 -8.440530 -29.758622 -3.480337 11.433226 -33.757218 -1.454459 1.701525 12.823677 -0.700609 1.717856 7.551990 -0.116578 0.671703 0.706595 4.034199 2.582024 -9.071133 -2.846959 3.158779 19.780361 -1.330154 1.431721 7.692207 0.000000 0.000000 0.000000 8.010457 13.045319 -30.066703 24.239913 -35.416928 7.845125 17.591381 -4.661329 -8.138240 0.000000 0.000000 0.000000 -7.125000 0.000000 0.000000 -7.971006 38.397955 -1.305866 0.000000 0.000000 0.000000 -12.439005 -0.946919 34.905060 -26.879229 -38.063775 -9.424559 -13.336034 -22.033957 0.903683 0.000000 0.000000 0.000000 7.125000 0.000000 0.000000 10.485743 30.809471 3.690213
16.697215 18.334361 0.723033 -27.868256 -86.726062 25.987910 0.000000 0.000000 0.000000 -24.376253 -18.480945 -5.548901 3.269020 11.118280 32.679707 2.151166 1.895419 -28.461025 0.021812 0.953872 2.621823 0.000000 0.000000 0.000000 24.557862 6.077078 -23.292028 -9.013229 -16.814937 56.134015 -1.658620 -9.074626 -29.067465 -2.829217 10.405979 -30.308440 -1.548245 1.733066 12.852425 -0.876856 1.746354 7.512708 -0.251474 0.686905 0.652708 4.039347 2.671452 -9.059413 -2.831172 3.281227 19.592555 -1.313595 1.494246 7.632744 0.000000 0.000000 0.000000 8.045362 12.676920 -29.987167 24.103951 -35.273971 7.766471 17.961022 -4.756521 -8.288924 0.000000 0.000000 0.000000 -7.125000 0.000000 0.000000 -7.678922 38.580616 -1.222715 0.000000 0.000000 0.000000 -12.494984 -1.660276 35.886818 -26.934441 -38.116561 -9.458651 -13.204545 -22.188315 0.705042 0.000000 0.000000 0.000000 7.125000 0.000000 0.000000 10.566162 30.606501 3.771679
16.780197 18.344022 0.728334 -28.781642 -86.726402 26.884283 0.000000 0.000000 0.000000 -24.190479 -18.151967 -6.133960 3.271372 11.121895 32.692122 2.108039 1.765204 -28.130681 0.021644 0.945214 2.598016 0.000000 0.000000 0.000000 24.669875 4.891569 -23.588682 -9.669758 -17.218634 58.377103 -1.391060 -9.982474 -27.890869 -2.121965 9.103410 -26.127844 -1.647782 1.752331 12.854923 -1.030701 1.759477 7.480107 -0.357480 0.693915 0.619142 4.059117 2.728377 -9.030496 -2.834046 3.360786 19.392763 -1.310007 1.536004 7.565258 0.000000 0.000000 0.000000 8.096549 12.331653 -29.952455 24.046545 -35.213492 7.733343 18.319919 -4.896262 -8.374239 0.000000 0.000000 0.000000 -7.125000 0.000000 0.000000 -7.385318 38.695271 -1.154463 0.000000 0.000000 0.000000 -12.559009 -2.246226 36.776777 -27.083161 -38.258266 -9.550596 -13.087381 -22.371367 0.609471 0.000000 0.000000 0.000000 7.125000 0.000000 0.000000 10.647061 30.507917 3.827080
16.862903 18.350150 0.730575 -28.942450 -86.628542 27.012683 0.000000 0.000000 0.000000 -23.996005 -17.881273 -6.778948 3.303968 11.171502 32.860480 2.071900 1.688977 -27.864560 0.010274 0.631139 1.734436 0.000000 0.000000 0.000000 24.807309 3.674002 -23.458828 -10.198636 -17.519220 60.149099 -1.032405 -10.964573 -26.040608 -1.554915 7.860845 -22.296932 -1.715657 1.772681 12.830170 -1.158538 1.779303 7.449432 -0.454338 0.705016 0.602330 4.076108 2.741500 -8.985590 -2.830325 3.379941 19.191947 -1.309662 1.549608 7.492295 0.000000 0.000000 0.000000 8.173420 12.020379 -29.969725 24.087138 -35.256216 7.756808 18.619735 -5.060863 -8.404829 0.000000 0.000000 0.000000 -7.125000 0.000000 0.000000 -7.133351 38.749063 -1.105109 0.000000 0.000000 0.000000 -12.632591 -2.691737 37.566772 -27.325353 -38.487462 -9.700973 -12.962954 -22.562391 0.660849 0.000000 0.000000 0.000000 7.125000 0.000000 0.000000 10.750431 30.557480 3.852302
16.944694 18.348877 0.730563 -28.639450 -86.463691 26.666952 0.000000 0.000000 0.000000 -23.791207 -17.658267 -7.520822 3.379435 11.285029 33.247685 2.049833 1.599486 -27.684289 0.001491 0.187145 0.514169 0.000000 0.000000 0.000000 24.959080 2.476011 -22.869118 -10.545837 -17.705350 61.297366 -0.615903 -11.908782 -23.481187 -1.242445 7.066558 -19.913290 -1.742362 1.803947 12.762675 -1.268650 1.820279 7.425094 -0.557118 0.727799 0.615619 4.087571 2.718783 -8.955745 -2.805890 3.346413 19.009941 -1.306521 1.539412 7.425918 0.000000 0.000000 0.000000 8.275683 11.740694 -30.024617 24.235663 -35.412339 7.842815 18.853290 -5.205480 -8.454708 0.000000 0.000000 0.000000 -7.125000 0.000000 0.000000 -6.940732 38.818347 -1.063037 0.000000 0.000000 0.000000 -12.716347 -3.008216 38.257791 -27.652190 -38.793740 -9.905172 -12.826332 -22.742418 0.879049 0.000000 0.000000 0.000000 7.125000 0.000000 0.000000 10.882922 30.774781 3.843570
17.024919 18.337306 0.728325 -28.337969 -86.270569 26.323941 0.000000 0.000000 0.000000 -23.556856 -17.432176 -8.424899 3.510210 11.477682 33.909145 2.047825 1.411882 -27.599832 0.001845 -0.214273 -0.588707 0.000000 0.000000 0.000000 25.139389 1.358056 -21.819120 -10.674762 -17.772163 61.720746 -0.208926 -12.685484 -20.389552 -1.188291 6.916473 -19.468710 -1.728352 1.856078 12.631940 -1.364082 1.896228 7.407295 -0.669855 0.769292 0.670652 4.048827 2.652509 -8.926526 -2.720120 3.249891 18.834618 -1.280836 1.501039 7.357725 0.000000 0.000000 0.000000 8.394211 11.495025 -30.092122 24.493971 -35.681968 7.993045 19.046419 -5.337470 -8.525012 0.000000 0.000000 0.000000 -7.125000 0.000000 0.000000 -6.785413 38.906142 -1.024292 0.000000 0.000000 0.000000 -12.807345 -3.211035 38.850600 -28.054687 -39.165997 -10.158450 -12.674770 -22.916610 1.188024 0.000000 0.000000 0.000000 7.125000 0.000000 0.000000 11.038982 31.082695 3.817442
